<?xml version="1.0" standalone="no"?><!DOCTYPE svg PUBLIC "-//W3C//DTD SVG 1.1//EN" "http://www.w3.org/Graphics/SVG/1.1/DTD/svg11.dtd"><svg t="1727101820538" class="icon" viewBox="0 0 1024 1024" version="1.1" xmlns="http://www.w3.org/2000/svg" p-id="2229" width="256" height="256" xmlns:xlink="http://www.w3.org/1999/xlink"><path d="M673.13152 347.42784c0-89.0368-72.1792-127.85152-161.21344-127.85152-89.0368 0-161.21344 38.81728-161.21344 127.85152h322.42688z" fill="#FFC9C9" p-id="2230"></path><path d="M340.79232 333.99296h344.48896a10.24 10.24 0 0 1 10.24 10.24v25.5872H330.55232v-25.5872a10.24 10.24 0 0 1 10.24-10.24z" fill="#BA0303" p-id="2231"></path><path d="M314.88 369.82016m10.24 0l375.8336 0q10.24 0 10.24 10.24l0 33.25696q0 10.24-10.24 10.24l-375.8336 0q-10.24 0-10.24-10.24l0-33.25696q0-10.24 10.24-10.24Z" fill="#BA0303" p-id="2232"></path><path d="M337.26976 423.55712h347.05664L626.112 896H395.48416z" fill="#BA0303" p-id="2233"></path><path d="M359.66208 423.55712h304.512l-51.4816 438.85568H410.53696z" fill="#D31B1B" p-id="2234"></path><path d="M502.96064 128h24.62976v205.99296h-24.62976z" fill="#BA0303" p-id="2235"></path><path d="M513.0368 603.8016m-72.77056 0a72.77056 72.77056 0 1 0 145.54112 0 72.77056 72.77056 0 1 0-145.54112 0Z" fill="#BA0303" p-id="2236"></path><path d="M427.95264 462.74048m-12.3136 0a12.3136 12.3136 0 1 0 24.6272 0 12.3136 12.3136 0 1 0-24.6272 0Z" fill="#FFC9C9" p-id="2237"></path><path d="M611.55584 550.06464m-12.3136 0a12.3136 12.3136 0 1 0 24.6272 0 12.3136 12.3136 0 1 0-24.6272 0Z" fill="#FFC9C9" p-id="2238"></path><path d="M452.5824 744.86272m-12.3136 0a12.3136 12.3136 0 1 0 24.6272 0 12.3136 12.3136 0 1 0-24.6272 0Z" fill="#FFC9C9" p-id="2239"></path><path d="M586.92608 838.90432m-12.3136 0a12.3136 12.3136 0 1 0 24.6272 0 12.3136 12.3136 0 1 0-24.6272 0Z" fill="#FFC9C9" p-id="2240"></path><path d="M473.85344 822.11072m-8.95744 0a8.95744 8.95744 0 1 0 17.91488 0 8.95744 8.95744 0 1 0-17.91488 0Z" fill="#FFC9C9" p-id="2241"></path><path d="M583.56736 703.43936m-8.95744 0a8.95744 8.95744 0 1 0 17.91488 0 8.95744 8.95744 0 1 0-17.91488 0Z" fill="#FFC9C9" p-id="2242"></path><path d="M545.50272 470.57664m-8.95744 0a8.95744 8.95744 0 1 0 17.91488 0 8.95744 8.95744 0 1 0-17.91488 0Z" fill="#FFC9C9" p-id="2243"></path><path d="M509.67808 801.9584m-6.71744 0a6.71744 6.71744 0 1 0 13.43488 0 6.71744 6.71744 0 1 0-13.43488 0Z" fill="#FFC9C9" p-id="2244"></path><path d="M554.46016 750.46144m-6.71744 0a6.71744 6.71744 0 1 0 13.43488 0 6.71744 6.71744 0 1 0-13.43488 0Z" fill="#FFC9C9" p-id="2245"></path><path d="M446.98368 696.72192m-6.71744 0a6.71744 6.71744 0 1 0 13.43488 0 6.71744 6.71744 0 1 0-13.43488 0Z" fill="#FFC9C9" p-id="2246"></path><path d="M429.07136 524.3136m-6.71744 0a6.71744 6.71744 0 1 0 13.43488 0 6.71744 6.71744 0 1 0-13.43488 0Z" fill="#FFC9C9" p-id="2247"></path><path d="M489.52832 486.25152m-6.71744 0a6.71744 6.71744 0 1 0 13.43488 0 6.71744 6.71744 0 1 0-13.43488 0Z" fill="#FFC9C9" p-id="2248"></path><path d="M617.15456 481.77152m-6.71744 0a6.71744 6.71744 0 1 0 13.43488 0 6.71744 6.71744 0 1 0-13.43488 0Z" fill="#FFC9C9" p-id="2249"></path><path d="M605.95968 654.17984m-6.71744 0a6.71744 6.71744 0 1 0 13.43488 0 6.71744 6.71744 0 1 0-13.43488 0Z" fill="#FFC9C9" p-id="2250"></path></svg>